/vscmnt/brussel_pixiu_data/_data_brussel/112/vsc11236/PredSimResults/SUBJ10mtu3D/worker8.mot
version=1
nRows=9
nColumns=50
inDegrees=yes
endheader
                time	         pelvis_tilt	         pelvis_list	     pelvis_rotation	           pelvis_tx	           pelvis_ty	           pelvis_tz	       hip_flexion_r	     hip_adduction_r	      hip_rotation_r	        knee_angle_r	       ankle_angle_r	         mtp_angle_r	       hip_flexion_l	     hip_adduction_l	      hip_rotation_l	        knee_angle_l	       ankle_angle_l	         mtp_angle_l	    lumbar_extension	      lumbar_bending	     lumbar_rotation	 ercspn_r/activation	 intobl_r/activation	 extobl_r/activation	    abd_r/activation	    add_r/activation	hamstrings_r/activation	bifemsh_r/activation	glut_max_r/activation	iliopsoas_r/activation	rect_fem_r/activation	  vasti_r/activation	gastroc_r/activation	 soleus_r/activation	tib_ant_r/activation	 ercspn_l/activation	 intobl_l/activation	 extobl_l/activation	    abd_l/activation	    add_l/activation	hamstrings_l/activation	bifemsh_l/activation	glut_max_l/activation	iliopsoas_l/activation	rect_fem_l/activation	  vasti_l/activation	gastroc_l/activation	 soleus_l/activation	tib_ant_l/activation	
          0.00000000	         -4.59577624	         -1.11561987	          7.78213608	          0.00000000	          0.82156310	         -0.01295607	         31.40323050	         -1.83210376	         -6.57861022	         -6.68070296	          2.23524268	          0.26738473	        -16.41502312	         -1.11672634	          0.45249601	         -4.94437900	          7.86903109	         26.60550929	         -6.82836334	         -0.48794456	         -6.43027499	          0.11603229	          0.18723897	          0.00999999	          0.00999999	          0.10761619	          0.12485571	          0.28022036	          0.02950115	          0.11245061	          0.00999999	          0.00999999	          0.01158479	          0.00999999	          0.29576902	          0.06294916	          0.00999999	          0.00999999	          0.05597440	          0.00999999	          0.01760169	          0.22788231	          0.01186132	          0.35297667	          0.00999999	          0.00999999	          0.34015477	          0.24202664	          0.02343889	
          0.01114407	         -4.63513922	         -1.07591285	          7.90630036	          0.01560442	          0.82009753	         -0.01288616	         31.34684284	         -1.74339214	         -6.34785196	         -8.29822617	          1.94434876	          0.26441931	        -16.57753865	         -1.21851979	          0.17462532	         -6.50075462	          7.16099708	         28.25707300	         -6.64413815	         -0.05808078	         -6.70230708	          0.09785688	          0.15790968	          0.00999999	          0.00999999	          0.14165714	          0.10797657	          0.24315956	          0.06585390	          0.09483624	          0.00999999	          0.00999999	          0.01667102	          0.01185733	          0.32304977	          0.09726888	          0.00999999	          0.00999999	          0.04720652	          0.00999999	          0.01484455	          0.19218661	          0.01185733	          0.29768608	          0.00999999	          0.00999999	          0.30846089	          0.23309286	          0.01976740	
          0.02228815	         -4.66480246	         -1.04761430	          7.98802753	          0.03151556	          0.81884132	         -0.01273669	         31.12284255	         -1.66135476	         -6.05238895	         -9.79342992	          1.51533558	          0.25535081	        -16.62856581	         -1.33693584	         -0.13429357	         -8.28991885	          6.32049316	         29.85988172	         -6.43901006	          0.39272550	         -6.94816375	          0.08697380	          0.13317456	          0.00999999	          0.03296107	          0.11946783	          0.09271252	          0.20507082	          0.09949988	          0.07998100	          0.00999999	          0.00999999	          0.01405965	          0.00999999	          0.42113163	          0.10841585	          0.00999999	          0.00999999	          0.03981205	          0.00999999	          0.01251929	          0.16208232	          0.00999999	          0.25105625	          0.00999999	          0.00999999	          0.26014329	          0.21858278	          0.01667101	
          0.03343222	         -4.68627868	         -1.01758281	          8.02094567	          0.04751903	          0.81792161	         -0.01246186	         30.82688147	         -1.57149713	         -5.83278932	        -11.14313750	          0.96386802	          0.24133359	        -16.49459249	         -1.45824855	         -0.47621178	        -10.41030435	          5.35160052	         31.32969885	         -6.23984303	          0.84093543	         -7.16121128	          0.10209340	          0.11231398	          0.00999999	          0.08412295	          0.16105746	          0.07818994	          0.17294833	          0.11637916	          0.06745271	          0.00999999	          0.00999999	          0.01185733	          0.00999999	          0.48209749	          0.13785481	          0.00999999	          0.00999999	          0.03357585	          0.00999999	          0.01356328	          0.13669360	          0.00999999	          0.21173057	          0.00999999	          0.00999999	          0.21939420	          0.20228292	          0.01405965	
          0.04457630	         -4.69878490	         -0.98525031	          8.00963182	          0.06346885	          0.81744265	         -0.01207375	         30.54319862	         -1.47639447	         -5.68029346	        -12.54055212	          0.53202070	          0.22490322	        -16.12326741	         -1.58378136	         -0.85460849	        -12.92819707	          4.26437560	         32.53394470	         -6.05876762	          1.28446997	         -7.34026339	          0.11031038	          0.09472101	          0.00999999	          0.12504318	          0.21279155	          0.06715386	          0.14585755	          0.13460131	          0.05688685	          0.00999999	          0.00999999	          0.00999999	          0.00999999	          0.49777961	          0.17390524	          0.00999999	          0.00999999	          0.02831650	          0.02794302	          0.02264103	          0.11528178	          0.00999999	          0.17856489	          0.00999999	          0.00999999	          0.18502809	          0.18028175	          0.01185733	
          0.05572037	         -4.70212137	         -0.95110719	          7.95795645	          0.07926108	          0.81749702	         -0.01158875	         30.30747073	         -1.37964895	         -5.57789286	        -14.05911035	          0.34888227	          0.20726266	        -15.47247350	         -1.71682394	         -1.28251859	        -15.89132867	          3.07046968	         33.29443315	         -5.90020731	          1.72141585	         -7.48584556	          0.11102284	          0.07988382	          0.00999999	          0.15030501	          0.25436630	          0.06093839	          0.12301028	          0.14234069	          0.04797604	          0.00999999	          0.03085858	          0.00999999	          0.00999999	          0.48804887	          0.20273783	          0.00999999	          0.00999999	          0.02388097	          0.08659796	          0.01960612	          0.09722394	          0.00999999	          0.15059432	          0.00999999	          0.00999999	          0.15604512	          0.15204225	          0.00999999	
          0.06686444	         -4.69752966	         -0.90966030	          7.86638982	          0.09482412	          0.81816643	         -0.01102846	         30.07828157	         -1.28216425	         -5.50592622	        -15.61827153	          0.46316713	          0.19151175	        -14.50629322	         -1.85658137	         -1.78248073	        -19.33932227	          1.78382738	         33.39796044	         -5.76611464	          2.14399666	         -7.59741875	          0.11112056	          0.06737075	          0.00999999	          0.16138730	          0.28246886	          0.05880467	          0.10374184	          0.13884740	          0.04046103	          0.00999999	          0.05219669	          0.00999999	          0.00999999	          0.45194704	          0.21354717	          0.00999999	          0.00999999	          0.02014024	          0.15349507	          0.01900449	          0.08199469	          0.00999999	          0.12700509	          0.00999999	          0.00999999	          0.13160207	          0.12822621	          0.00999999	
          0.07800852	         -4.68676862	         -0.85531751	          7.73537146	          0.11013494	          0.81945125	         -0.01041907	         29.78031971	         -1.17985752	         -5.43299479	        -17.07825175	          0.87774764	          0.19495565	        -13.21441988	         -2.00751214	         -2.35543705	        -23.24428572	          0.29672016	         32.82691409	         -5.65458077	          2.54645602	         -7.67358272	          0.10067501	          0.05681773	          0.00999999	          0.16396349	          0.28797762	          0.05897093	          0.08749162	          0.12808800	          0.03412318	          0.00999999	          0.07645693	          0.00999999	          0.00999999	          0.38115363	          0.21553918	          0.00999999	          0.00999999	          0.01698545	          0.21930425	          0.02235348	          0.06915096	          0.00999999	          0.10711089	          0.00999999	          0.00999999	          0.11098779	          0.10814073	          0.00999999	
          0.08915259	         -4.67238855	         -0.78220431	          7.56436905	          0.12516623	          0.82130645	         -0.00978192	         29.34106198	         -1.06843504	         -5.32390090	        -18.29255047	          1.54216461	          0.25554042	        -11.61128415	         -2.17399567	         -2.98482905	        -27.50996912	         -1.53239278	         31.62374049	         -5.56702405	          2.92309891	         -7.71339320	          0.08490518	          0.04791775	          0.00999999	          0.16130698	          0.26156563	          0.06232514	          0.07378685	          0.10802418	          0.02877809	          0.00999999	          0.10468734	          0.00999999	          0.00999999	          0.32144937	          0.20655418	          0.00999999	          0.00999999	          0.01432483	          0.26971812	          0.03090154	          0.05831909	          0.00999999	          0.09033294	          0.00999999	          0.00999999	          0.09360256	          0.09120147	          0.00999999	
